<?xml version="1.0" encoding="utf-8"?>
<!-- Generator: Adobe Illustrator 24.0.1, SVG Export Plug-In . SVG Version: 6.00 Build 0)  -->
<svg version="1.1" xmlns="http://www.w3.org/2000/svg" xmlns:xlink="http://www.w3.org/1999/xlink" x="0px" y="0px"
	 viewBox="0 0 1024 1024" style="enable-background:new 0 0 1024 1024;" xml:space="preserve">
<style type="text/css">
	.st0{fill:#E1E9FF;}
	.st1{display:none;opacity:0.18;}
	.st2{display:inline;fill:#FFFFFF;}
	.st3{fill:#65648C;}
	.st4{fill:#171347;}
	.st5{fill:#E1E1FF;}
	.st6{fill:#FFFFFF;}
	.st7{fill:#415A77;}
	.st8{fill:#CCCCCC;}
	.st9{fill:#3F3D56;}
	.st10{fill:#15DB95;}
	.st11{fill:#0033CC;}
	.st12{opacity:0.2;enable-background:new    ;}
</style>
<g id="Layer_2">
	<rect class="st0" width="1024" height="1024"/>
</g>
<g id="Layer_3" class="st1">
	<circle class="st2" cx="85" cy="79" r="42"/>
	<circle class="st2" cx="917" cy="932" r="42"/>
	<circle class="st2" cx="85" cy="939" r="42"/>
	<circle class="st2" cx="447" cy="174" r="25"/>
	<circle class="st2" cx="360" cy="819" r="25"/>
	<circle class="st2" cx="495.5" cy="935.5" r="18.5"/>
	<circle class="st2" cx="916.5" cy="672.5" r="19.5"/>
	<circle class="st2" cx="942" cy="322" r="25"/>
	<circle class="st2" cx="781" cy="149" r="25"/>
	<circle class="st2" cx="654.5" cy="51.5" r="8.5"/>
	<circle class="st2" cx="952.5" cy="49.5" r="14.5"/>
	<circle class="st2" cx="68" cy="277" r="25"/>
	<circle class="st2" cx="93" cy="781" r="25"/>
</g>
<g id="Layer_1">
	<g>
		<path class="st3" d="M881.3,767.1h-687c-12.7,0-23-10.3-23-23l0,0c249-28.9,493.4-28.9,733,0l0,0
			C904.3,756.8,894,767.1,881.3,767.1z"/>
		<path class="st4" d="M904.3,745.4l-733-1.4l85-142.9l0.4-0.7v-315c0-16.1,13-29.1,29.1-29.1c0,0,0,0,0,0h500
			c16.1,0,29.1,13,29.1,29.1c0,0,0,0,0,0v317.2L904.3,745.4z"/>
		<path class="st5" d="M285.1,276.6c-5.2,0-9.5,4.2-9.5,9.5v287.3c0,5.2,4.2,9.5,9.5,9.5h505.4c5.2,0,9.5-4.2,9.5-9.5V286.1
			c0-5.2-4.2-9.5-9.5-9.5H285.1z"/>
		<path class="st3" d="M288.4,620.7c-1.6,0-3,0.9-3.7,2.4L258.5,680c-0.9,2,0,4.5,2,5.4c0.5,0.2,1.1,0.4,1.7,0.4h550.5
			c2.2,0,4.1-1.8,4.1-4.1c0-0.6-0.1-1.3-0.4-1.8L787.9,623c-0.7-1.4-2.1-2.3-3.6-2.2L288.4,620.7z"/>
		<circle class="st6" cx="535.8" cy="265.7" r="6.1"/>
		<path class="st7" d="M481.7,696.6c-1.8,0-3.4,1.2-3.9,3l-6.6,24.4c-0.6,2.2,0.7,4.4,2.9,5c0.3,0.1,0.7,0.1,1.1,0.1H600
			c2.2,0,4.1-1.8,4.1-4.1c0-0.5-0.1-0.9-0.2-1.3l-8.4-24.4c-0.6-1.6-2.1-2.7-3.8-2.7L481.7,696.6z"/>
		<polygon class="st3" points="814.9,595.7 814.9,601.1 256.2,601.1 256.7,600.4 256.7,595.7 		"/>
		<path class="st8" d="M745.9,608.1c-0.4,0-0.8,0.3-1,0.7l-1.6,5.9c-0.1,0.5,0.2,1.1,0.7,1.2c0.1,0,0.2,0,0.3,0h30.4
			c0.5,0,1-0.4,1-1c0-0.1,0-0.2-0.1-0.3l-2.1-5.9c-0.1-0.4-0.5-0.7-0.9-0.7L745.9,608.1z"/>
		<path class="st8" d="M701.5,608.1c-0.4,0-0.8,0.3-1,0.7l-1.6,5.9c-0.1,0.5,0.2,1.1,0.7,1.2c0.1,0,0.2,0,0.3,0h30.4
			c0.5,0,1-0.4,1-1c0-0.1,0-0.2-0.1-0.3l-2.1-5.9c-0.1-0.4-0.5-0.7-0.9-0.7L701.5,608.1z"/>
		<path class="st9" d="M572.9,645.8h2.4l-4.8-318.6h-2.4l0.1,6.4h-53.4l0.1-6.4h-2.4l-4.8,318.6h2.4l0.3-20.7h62.1L572.9,645.8z
			 M569.5,416.2h-55.9l0.6-38.9h54.7L569.5,416.2z M569.5,418.6l0.6,38.9h-57.1l0.6-38.9H569.5z M570.1,459.9l0.6,38.9h-58.4
			l0.6-38.9H570.1z M570.7,501.2l0.6,38.9h-59.6l0.6-38.9H570.7z M571.3,542.5l0.6,38.9h-60.8l0.6-38.9H571.3z M568.3,336l0.6,38.9
			h-54.7l0.6-38.9H568.3z M510.5,622.8l0.6-38.9H572l0.6,38.9H510.5z"/>
		<circle class="st10" cx="529.7" cy="398.1" r="38.9"/>
		
			<rect x="542.7" y="425.8" transform="matrix(0.984 -0.1781 0.1781 0.984 -68.9671 104.7104)" class="st4" width="11.8" height="21.2"/>
		
			<rect x="519.5" y="430.1" transform="matrix(0.984 -0.1781 0.1781 0.984 -70.0879 100.6386)" class="st4" width="11.8" height="21.2"/>
		
			<ellipse transform="matrix(0.7631 -0.6463 0.6463 0.7631 -168.7542 446.9264)" class="st4" cx="525.3" cy="453.7" rx="9.8" ry="3.7"/>
		
			<ellipse transform="matrix(0.7631 -0.6463 0.6463 0.7631 -160.7028 460.6543)" class="st4" cx="548" cy="449.5" rx="9.8" ry="3.7"/>
		<circle class="st6" cx="527" cy="388.6" r="13.3"/>
		<circle class="st9" cx="521.5" cy="383.8" r="4.4"/>
		<path class="st11" d="M560.4,355.8c0.6-14.4-11.8-26.6-27.7-27.2c-15.9-0.6-29.2,10.5-29.8,24.9c-0.6,14.4,10.5,17.7,26.3,18.3
			C545.1,372.4,559.8,370.2,560.4,355.8z"/>
		<ellipse transform="matrix(0.2234 -0.9747 0.9747 0.2234 2.3439 784.996)" class="st4" cx="493.8" cy="391" rx="6.1" ry="19.4"/>
		
			<ellipse transform="matrix(0.2234 -0.9747 0.9747 0.2234 49.2208 869.2066)" class="st4" cx="570.1" cy="403.7" rx="6.1" ry="19.4"/>
		<path class="st6" d="M540.4,413.4c0.9,4.8-2.3,9.4-7.1,10.3c-4.8,0.9-9.4-2.3-10.3-7.1l0,0c-0.9-4.8,2.8-6.5,7.7-7.4
			S539.5,408.6,540.4,413.4z"/>
		
			<ellipse transform="matrix(0.357 -0.9341 0.9341 0.357 -240.8849 705.7852)" class="st4" cx="392.2" cy="527.9" rx="19.9" ry="6.3"/>
		
			<ellipse transform="matrix(0.1602 -0.9871 0.9871 0.1602 -252.2701 819.3975)" class="st10" cx="355.4" cy="558" rx="39.8" ry="39.8"/>
		<rect x="337.3" y="589.2" class="st6" width="12.1" height="21.7"/>
		<rect x="361.5" y="589.2" class="st6" width="12.1" height="21.7"/>
		<ellipse class="st6" cx="347.3" cy="611.2" rx="10.1" ry="3.8"/>
		<ellipse class="st6" cx="371.5" cy="610.7" rx="10.1" ry="3.8"/>
		<path class="st11" d="M316.8,520.9c-3.2-14.4,7.1-29,23-32.5c15.9-3.6,31.4,5.2,34.6,19.7c3.2,14.4-7.3,19.7-23.2,23.3
			C335.2,534.9,320,535.3,316.8,520.9z"/>
		
			<ellipse transform="matrix(0.4285 -0.9035 0.9035 0.4285 -309.9614 588.8678)" class="st4" cx="310.5" cy="539.5" rx="6.3" ry="19.9"/>
		<circle class="st10" cx="182.9" cy="598.3" r="39.8"/>
		<rect x="164.8" y="629.6" class="st4" width="12.1" height="21.7"/>
		<rect x="189" y="629.6" class="st4" width="12.1" height="21.7"/>
		<ellipse class="st4" cx="174.8" cy="651.5" rx="10.1" ry="3.8"/>
		<ellipse class="st4" cx="199" cy="651" rx="10.1" ry="3.8"/>
		<circle class="st6" cx="183.9" cy="588.2" r="13.6"/>
		<circle class="st9" cx="183.9" cy="588.2" r="4.5"/>
		<path class="st11" d="M144.3,561.2c-3.2-14.4,7.1-29,23-32.5s31.4,5.2,34.6,19.7c3.2,14.4-7.3,19.7-23.2,23.3
			S147.5,575.6,144.3,561.2z"/>
		
			<ellipse transform="matrix(0.357 -0.9341 0.9341 0.357 -291.3025 484.2686)" class="st4" cx="206.1" cy="453.7" rx="19.9" ry="6.3"/>
		
			<ellipse transform="matrix(0.3162 -0.9487 0.9487 0.3162 -343.2318 491.4256)" class="st10" cx="169.3" cy="483.8" rx="39.8" ry="39.8"/>
		<rect x="151.1" y="515.1" class="st6" width="12.1" height="21.7"/>
		<rect x="175.3" y="515.1" class="st6" width="12.1" height="21.7"/>
		<ellipse class="st6" cx="161.2" cy="537" rx="10.1" ry="3.8"/>
		<ellipse class="st6" cx="185.4" cy="536.5" rx="10.1" ry="3.8"/>
		<circle class="st6" cx="170.3" cy="473.7" r="13.6"/>
		<circle class="st9" cx="170.3" cy="473.7" r="4.5"/>
		<path class="st11" d="M130.6,446.8c-3.2-14.4,7.1-29,23-32.5s31.4,5.2,34.6,19.7c3.2,14.4-7.3,19.7-23.2,23.3
			C149.1,460.7,133.9,461.2,130.6,446.8z"/>
		
			<ellipse transform="matrix(0.4285 -0.9035 0.9035 0.4285 -349.3376 378.3407)" class="st4" cx="124.4" cy="465.3" rx="6.3" ry="19.9"/>
		<path class="st6" d="M149.7,498.2c0,3.9,10,11.6,21.2,11.6c11.1,0,21.6-11,21.6-14.9c0-3.9-10.4,0.8-21.6,0.8
			C159.8,495.7,149.7,494.3,149.7,498.2z"/>
		<path class="st11" d="M208.5,331.7c-1.5,0-2.8,1.2-2.8,2.8v114.7c0,1.5,1.2,2.8,2.8,2.8h265.5c1.5,0,2.8-1.2,2.8-2.8V334.5
			c0-1.5-1.2-2.8-2.8-2.8H208.5z"/>
		<circle class="st6" cx="280.1" cy="391.8" r="26.9"/>
		<path id="b71acdfd-6a55-428e-917a-53f192cb0203" class="st6" d="M340.9,388.2c-1.7,0-3.1,1.5-3.1,3.2c0,1.7,1.4,3.1,3.1,3.1H426
			c1.7,0,3.2-1.4,3.2-3.1c0-1.7-1.4-3.2-3.1-3.2c0,0-0.1,0-0.1,0H340.9z"/>
		<path id="ad4fbcfa-41b0-45f9-a593-23b6dc3fe165" class="st6" d="M340.9,370c-1.7,0-3.1,1.5-3.1,3.2c0,1.7,1.4,3.1,3.1,3.1h42.5
			c1.7,0,3.2-1.4,3.2-3.1c0-1.7-1.4-3.2-3.1-3.2c0,0,0,0,0,0c0,0-0.1,0-0.1,0H340.9z"/>
		<path id="bce2a7cd-a325-424d-9b3a-f63d1dad5aba" class="st6" d="M340.9,407.4c-1.7,0-3.1,1.5-3.1,3.2c0,1.7,1.4,3.1,3.1,3.1H426
			c1.7,0,3.2-1.4,3.2-3.1c0-1.7-1.4-3.2-3.1-3.2c0,0-0.1,0-0.1,0H340.9z"/>
		
			<ellipse transform="matrix(0.9341 -0.357 0.357 0.9341 -165.3213 306.2725)" class="st6" cx="746.9" cy="600.9" rx="6.3" ry="19.9"/>
		<circle class="st10" cx="775.4" cy="639.3" r="39.8"/>
		<polygon class="st6" points="793.6,670.6 781.5,670.6 783.8,696.6 793.6,693.9 		"/>
		<polygon class="st6" points="767.2,670.7 755.1,670.7 757.4,696.6 766.8,693.9 		"/>
		
			<ellipse transform="matrix(0.9973 -7.291862e-02 7.291862e-02 0.9973 -48.597 57.034)" class="st6" cx="756.8" cy="694.1" rx="10.1" ry="3.8"/>
		<circle class="st6" cx="774.4" cy="629.2" r="13.6"/>
		<circle class="st9" cx="774.4" cy="629.2" r="4.5"/>
		
			<ellipse transform="matrix(0.5941 -0.8044 0.8044 0.5941 -160.1484 905.8127)" class="st6" cx="817.5" cy="611.6" rx="19.9" ry="6.3"/>
		<path class="st6" d="M756,659.9c0-3.2,8.3-9.6,17.5-9.6s17.8,9,17.8,12.3c0,3.2-8.6-0.6-17.8-0.6S756,663.1,756,659.9z"/>
		<path class="st10" d="M887.1,606.4L669,576.2c-3.5-0.5-6-3.8-5.5-7.3L688,392c0.5-3.5,3.8-6,7.3-5.5l218.1,30.2
			c3.5,0.5,6,3.8,5.5,7.3l-24.5,176.8C893.9,604.4,890.7,606.9,887.1,606.4z"/>
		<path class="st6" d="M809,551.2l-111.3-15.4c-0.1,0-0.3,0-0.4-0.1l65.3-83.9c1.2-1.6,3.6-1.9,5.2-0.7c0.5,0.4,1,1,1.2,1.6
			l26.9,66.1l1.3,3.2L809,551.2z"/>
		<polygon class="st12" points="809,551.2 771,546 793.4,521.4 795,519.7 795.8,518.8 797.1,521.9 		"/>
		<path class="st6" d="M871,559.8l-96.3-13.3l22.4-24.5l1.6-1.8l29.2-32c2-1.9,5.1-1.8,7,0.2c0.1,0.1,0.2,0.3,0.3,0.4
			c0.1,0.2,0.2,0.3,0.3,0.5L871,559.8z"/>
		<circle class="st6" cx="810.4" cy="463.6" r="16.7"/>
		
			<rect x="697.6" y="401.4" transform="matrix(0.1373 -0.9905 0.9905 0.1373 202.8722 1056.1)" class="st4" width="20.4" height="20.4"/>
		<path class="st11" d="M814.1,602.3c3.2-14.4-7.1-29-23-32.5s-31.4,5.2-34.6,19.7c-3.2,14.4,7.3,19.7,23.2,23.3
			C795.6,616.2,810.8,616.7,814.1,602.3z"/>
		
			<ellipse transform="matrix(0.9973 -7.291862e-02 7.291862e-02 0.9973 -48.5217 58.9692)" class="st6" cx="783.4" cy="694" rx="10.1" ry="3.8"/>
	</g>
</g>
</svg>
